<svg xmlns="http://www.w3.org/2000/svg" viewBox="0 0 512 512" width="100%" height="100%">
  <!-- Background with modern round corners -->
  <rect width="512" height="512" rx="110" fill="#16a34a" />
  
  <!-- Outer glowing green leaf details -->
  <path d="M380 100c-30-20-75-10-100 20-15 18-20 40-20 60 0-40-30-80-75-80-50 0-90 40-90 90 0 95 140 210 185 240 45-30 185-145 185-240 0-40-25-70-60-90z" fill="#22c55e" opacity="0.6" />
  
  <!-- Clean central shopping/rescue bag -->
  <path d="M190 200h132c10 0 18 8 18 18v140c0 10-8 18-18 18H190c-10 0-18-8-18-18V218c0-10 8-18 18-18z" fill="#ffffff" />
  
  <!-- Bag handles -->
  <path d="M220 200v-20c0-20 16-36 36-36s36 16 36 36v20" fill="none" stroke="#ffffff" stroke-width="14" stroke-linecap="round" />
  
  <!-- Eco Leaf motif inside the bag -->
  <path d="M256 240c-25 0-40 20-40 40 0 25 40 50 40 50s40-25 40-50c0-20-15-40-40-40z" fill="#16a34a" />
  <path d="M256 230c10 0 25-10 30-20 3 10-3 25-15 30-8 3-20 0-20-10z" fill="#4ade80" />
</svg>
